<svg xmlns="http://www.w3.org/2000/svg" viewBox="0 0 253.224 155.997">
  <g fill="#6366fb" data-name="Group 1">
    <g transform="translate(-103.614 -78)">
      <path d="M284.095 126.276c0-7.181-8.992-13.986-22.779-18.206 3.182-14.052 1.768-25.232-4.463-28.811a9.687 9.687 0 0 0-4.949-1.237v4.927a5.116 5.116 0 0 1 2.519.574c3 1.723 4.308 8.285 3.292 16.725-.243 2.077-.641 4.264-1.127 6.5a107.076 107.076 0 0 0-14.03-2.408 107.777 107.777 0 0 0-9.191-11.047c7.2-6.695 13.964-10.362 18.559-10.362V78c-6.076 0-14.03 4.33-22.072 11.843-8.042-7.468-16-11.754-22.072-11.754v4.927c4.574 0 11.356 3.646 18.559 10.3a104.354 104.354 0 0 0-9.125 11.025 103.175 103.175 0 0 0-14.052 2.43 66.68 66.68 0 0 1-1.149-6.407c-1.038-8.44.243-15 3.226-16.747a4.917 4.917 0 0 1 2.541-.574V78.11a9.851 9.851 0 0 0-4.993 1.237c-6.209 3.579-7.6 14.737-4.4 28.745-13.743 4.242-22.691 11.025-22.691 18.184 0 7.181 8.992 13.986 22.779 18.206-3.182 14.052-1.768 25.232 4.463 28.811a9.712 9.712 0 0 0 4.971 1.237c6.076 0 14.03-4.33 22.072-11.843 8.042 7.468 16 11.754 22.072 11.754a9.852 9.852 0 0 0 4.993-1.237c6.208-3.579 7.6-14.737 4.4-28.745 13.7-4.22 22.647-11.025 22.647-18.184Zm-28.767-14.737c-.817 2.85-1.834 5.789-2.983 8.727a103.647 103.647 0 0 0-2.894-5.3c-1.016-1.768-2.1-3.491-3.182-5.17 3.137.464 6.164 1.038 9.059 1.745Zm-10.119 23.53c-1.723 2.983-3.491 5.811-5.325 8.44-3.292.287-6.628.442-9.987.442-3.336 0-6.672-.155-9.942-.42q-2.751-3.944-5.347-8.4-2.519-4.342-4.6-8.794a115.004 115.004 0 0 1 4.574-8.816c1.723-2.983 3.491-5.811 5.325-8.44 3.292-.287 6.628-.442 9.987-.442 3.336 0 6.672.155 9.942.42q2.751 3.944 5.347 8.4 2.519 4.342 4.6 8.794a123.425 123.425 0 0 1-4.574 8.816Zm7.136-2.872a94.806 94.806 0 0 1 3.049 8.794c-2.894.707-5.943 1.3-9.1 1.768 1.083-1.7 2.165-3.447 3.182-5.236a126.039 126.039 0 0 0 2.872-5.325Zm-22.4 23.575a91.088 91.088 0 0 1-6.142-7.07c1.988.088 4.021.155 6.076.155 2.077 0 4.132-.044 6.142-.155a86.238 86.238 0 0 1-6.079 7.07ZM213.5 142.758c-3.137-.464-6.164-1.038-9.059-1.745.817-2.85 1.834-5.789 2.983-8.727.906 1.768 1.856 3.535 2.894 5.3s2.103 3.493 3.182 5.172Zm16.331-45.978a91.084 91.084 0 0 1 6.142 7.07 137.318 137.318 0 0 0-6.076-.155c-2.077 0-4.132.044-6.142.155a86.24 86.24 0 0 1 6.076-7.07Zm-16.35 13.014a121.954 121.954 0 0 0-6.054 10.536 94.806 94.806 0 0 1-3.049-8.794 107.372 107.372 0 0 1 9.1-1.745Zm-20 27.662c-7.821-3.336-12.881-7.711-12.881-11.18s5.06-7.866 12.881-11.18c1.9-.817 3.977-1.547 6.12-2.232a106.117 106.117 0 0 0 4.971 13.455 104.62 104.62 0 0 0-4.9 13.389 66.71 66.71 0 0 1-6.186-2.252Zm11.887 31.573c-3-1.723-4.308-8.285-3.292-16.725.243-2.077.641-4.264 1.127-6.5a107.073 107.073 0 0 0 14.03 2.408 107.775 107.775 0 0 0 9.191 11.047c-7.2 6.695-13.964 10.362-18.559 10.362a5.273 5.273 0 0 1-2.5-.6Zm52.408-16.836c1.038 8.44-.243 15-3.226 16.747a4.917 4.917 0 0 1-2.541.574c-4.574 0-11.356-3.646-18.559-10.3a104.356 104.356 0 0 0 9.125-11.025 103.173 103.173 0 0 0 14.052-2.43 61.859 61.859 0 0 1 1.153 6.434Zm8.506-14.737c-1.9.817-3.977 1.547-6.12 2.232a106.117 106.117 0 0 0-4.971-13.455 104.617 104.617 0 0 0 4.9-13.389 69.93 69.93 0 0 1 6.208 2.254c7.821 3.336 12.881 7.711 12.881 11.18-.022 3.469-5.082 7.866-12.9 11.18Zm-58.523-59.368Z" data-name="Path 1"/>
      <circle cx="10.097" cy="10.097" r="10.097" data-name="Ellipse 1" transform="translate(219.778 116.179)"/>
      <path d="M251.881 78.022Z" data-name="Path 2"/>
    </g>
    <path d="M26.183 128.909h-6.226a6.155 6.155 0 0 0-.7-2.152 5.487 5.487 0 0 0-1.349-1.612 5.953 5.953 0 0 0-1.9-1.023 7.346 7.346 0 0 0-2.322-.355 6.937 6.937 0 0 0-3.935 1.115 7.22 7.22 0 0 0-2.6 3.239 12.885 12.885 0 0 0-.923 5.149 12.99 12.99 0 0 0 .93 5.227 7.039 7.039 0 0 0 2.607 3.2 7 7 0 0 0 3.878 1.08 7.742 7.742 0 0 0 2.294-.327 5.939 5.939 0 0 0 1.882-.959 5.488 5.488 0 0 0 1.371-1.541 6.122 6.122 0 0 0 .76-2.074l6.222.028a11.276 11.276 0 0 1-1.189 3.853 11.649 11.649 0 0 1-2.571 3.31 12.034 12.034 0 0 1-3.835 2.3 14.048 14.048 0 0 1-5.026.848 13.688 13.688 0 0 1-6.953-1.764 12.443 12.443 0 0 1-4.83-5.1A17.07 17.07 0 0 1 0 133.269a16.934 16.934 0 0 1 1.79-8.1 12.519 12.519 0 0 1 4.858-5.092 13.658 13.658 0 0 1 6.9-1.754 14.986 14.986 0 0 1 4.695.71 11.975 11.975 0 0 1 3.842 2.067 10.84 10.84 0 0 1 2.734 3.317 12.425 12.425 0 0 1 1.364 4.492Zm10.522 19.318a9.016 9.016 0 0 1-3.722-.732 5.882 5.882 0 0 1-2.578-2.173 6.438 6.438 0 0 1-.945-3.6 6.361 6.361 0 0 1 .668-3.054 5.406 5.406 0 0 1 1.818-1.989 8.808 8.808 0 0 1 2.621-1.136 19.733 19.733 0 0 1 3.089-.54q1.9-.2 3.068-.376a4.285 4.285 0 0 0 1.69-.533 1.186 1.186 0 0 0 .526-1.051v-.085a2.625 2.625 0 0 0-.845-2.088 3.523 3.523 0 0 0-2.393-.739 4.264 4.264 0 0 0-2.6.717 3.367 3.367 0 0 0-1.278 1.8l-5.6-.455a7.654 7.654 0 0 1 1.679-3.448 8.13 8.13 0 0 1 3.232-2.244 12.374 12.374 0 0 1 4.6-.788 14.044 14.044 0 0 1 3.487.426 9.2 9.2 0 0 1 2.961 1.321 6.463 6.463 0 0 1 2.053 2.294 6.967 6.967 0 0 1 .753 3.345v14.716h-5.736v-3.026h-.17a6.068 6.068 0 0 1-1.406 1.8 6.342 6.342 0 0 1-2.117 1.205 8.618 8.618 0 0 1-2.855.433Zm1.733-4.176a5.032 5.032 0 0 0 2.358-.536 4.123 4.123 0 0 0 1.605-1.442 3.736 3.736 0 0 0 .582-2.058V137.7a3.094 3.094 0 0 1-.774.334q-.49.149-1.1.27t-1.226.211q-.611.092-1.108.163a7.486 7.486 0 0 0-1.861.5 3 3 0 0 0-1.231.917 2.28 2.28 0 0 0-.44 1.428 2.17 2.17 0 0 0 .9 1.882 3.842 3.842 0 0 0 2.295.646Zm21.306-25.327v29.091h-6.037l-.014-29.091Zm14.773 29.517a11.569 11.569 0 0 1-5.788-1.371A9.272 9.272 0 0 1 65 142.978a12.82 12.82 0 0 1-1.307-5.973A12.754 12.754 0 0 1 65 131.096a9.645 9.645 0 0 1 3.683-3.963 10.7 10.7 0 0 1 5.589-1.42 11.547 11.547 0 0 1 4.027.689 9.077 9.077 0 0 1 3.267 2.067 9.414 9.414 0 0 1 2.18 3.459 13.815 13.815 0 0 1 .781 4.865v1.662H66.108v-3.75h12.727a4.635 4.635 0 0 0-.568-2.315 4.134 4.134 0 0 0-1.57-1.584 4.58 4.58 0 0 0-2.322-.575 4.658 4.658 0 0 0-2.436.632 4.534 4.534 0 0 0-1.655 1.69 4.814 4.814 0 0 0-.611 2.351v3.565a6.068 6.068 0 0 0 .6 2.8 4.321 4.321 0 0 0 1.716 1.816 5.17 5.17 0 0 0 2.628.639 5.722 5.722 0 0 0 1.847-.284 3.833 3.833 0 0 0 1.435-.852 3.706 3.706 0 0 0 .909-1.392l5.6.369a7.629 7.629 0 0 1-1.74 3.516 8.742 8.742 0 0 1-3.385 2.334 12.705 12.705 0 0 1-4.766.826Zm20.014-13.04v12.614h-6.048v-21.818h5.767v3.849h.256a6.124 6.124 0 0 1 2.429-3.018 7.386 7.386 0 0 1 4.134-1.115 7.673 7.673 0 0 1 3.963.994 6.768 6.768 0 0 1 2.628 2.834 9.544 9.544 0 0 1 .938 4.382v13.892h-6.055v-12.812a4.408 4.408 0 0 0-1.023-3.132 3.683 3.683 0 0 0-2.855-1.129 4.3 4.3 0 0 0-2.152.526 3.615 3.615 0 0 0-1.449 1.527 5.3 5.3 0 0 0-.533 2.406Zm26.861 12.969a8.168 8.168 0 0 1-4.5-1.286 8.751 8.751 0 0 1-3.182-3.793 14.49 14.49 0 0 1-1.172-6.158 14.287 14.287 0 0 1 1.207-6.243 8.7 8.7 0 0 1 3.217-3.736 8.225 8.225 0 0 1 4.411-1.243 6.778 6.778 0 0 1 3.061.618 6.094 6.094 0 0 1 1.989 1.534 8.022 8.022 0 0 1 1.158 1.8h.185v-10.939h6.037v29.091h-5.966v-3.494h-.254a7.776 7.776 0 0 1-1.2 1.8 6.047 6.047 0 0 1-2 1.47 6.943 6.943 0 0 1-2.991.579Zm1.918-4.815a3.874 3.874 0 0 0 2.479-.8 5.066 5.066 0 0 0 1.563-2.251 9.6 9.6 0 0 0 .547-3.395 9.591 9.591 0 0 0-.54-3.381 4.852 4.852 0 0 0-1.562-2.216 3.974 3.974 0 0 0-2.486-.781 3.924 3.924 0 0 0-2.514.81 4.952 4.952 0 0 0-1.548 2.244 9.641 9.641 0 0 0-.526 3.324 9.751 9.751 0 0 0 .533 3.359 5.066 5.066 0 0 0 1.548 2.273 3.873 3.873 0 0 0 2.506.814Zm21.673 4.872a9.016 9.016 0 0 1-3.722-.732 5.882 5.882 0 0 1-2.578-2.173 6.438 6.438 0 0 1-.945-3.6 6.361 6.361 0 0 1 .668-3.054 5.406 5.406 0 0 1 1.818-1.989 8.808 8.808 0 0 1 2.621-1.136 19.734 19.734 0 0 1 3.089-.54q1.9-.2 3.068-.376a4.285 4.285 0 0 0 1.69-.533 1.186 1.186 0 0 0 .526-1.051v-.085a2.625 2.625 0 0 0-.845-2.088 3.523 3.523 0 0 0-2.39-.74 4.264 4.264 0 0 0-2.6.717 3.367 3.367 0 0 0-1.278 1.8l-5.6-.455a7.654 7.654 0 0 1 1.678-3.447 8.13 8.13 0 0 1 3.232-2.244 12.374 12.374 0 0 1 4.6-.788 14.044 14.044 0 0 1 3.487.426 9.2 9.2 0 0 1 2.969 1.321 6.463 6.463 0 0 1 2.053 2.294 6.967 6.967 0 0 1 .753 3.345v14.716h-5.739v-3.026h-.17a6.068 6.068 0 0 1-1.406 1.8 6.343 6.343 0 0 1-2.116 1.207 8.618 8.618 0 0 1-2.863.431Zm1.733-4.176a5.032 5.032 0 0 0 2.358-.533 4.123 4.123 0 0 0 1.609-1.442 3.736 3.736 0 0 0 .582-2.06v-2.315a3.094 3.094 0 0 1-.774.334q-.49.149-1.1.27t-1.222.213q-.611.092-1.108.163a7.486 7.486 0 0 0-1.861.5 3 3 0 0 0-1.236.916 2.28 2.28 0 0 0-.44 1.428 2.17 2.17 0 0 0 .9 1.882 3.842 3.842 0 0 0 2.295.644Zm15.259 3.764v-21.818h5.866v3.807h.227a5.67 5.67 0 0 1 2-3.075 5.289 5.289 0 0 1 3.239-1.044 9.154 9.154 0 0 1 .98.057 6.9 6.9 0 0 1 .923.156v5.369a7.906 7.906 0 0 0-1.179-.227 10.592 10.592 0 0 0-1.378-.1 4.848 4.848 0 0 0-2.379.575 4.275 4.275 0 0 0-1.648 1.6 4.551 4.551 0 0 0-.6 2.358v12.342Zm19.886 0h-6.591l10.043-29.091h7.926l10.028 29.091h-6.591l-7.287-22.443h-.227Zm-.412-11.435h15.568v4.8h-15.568Zm25.2 19.616v-30h5.966v3.665h.27a8.022 8.022 0 0 1 1.158-1.8 6.093 6.093 0 0 1 1.989-1.534 6.778 6.778 0 0 1 3.061-.618 8.236 8.236 0 0 1 4.4 1.243 8.681 8.681 0 0 1 3.224 3.736 14.287 14.287 0 0 1 1.207 6.243 14.49 14.49 0 0 1-1.172 6.158 8.751 8.751 0 0 1-3.179 3.796 8.168 8.168 0 0 1-4.5 1.286 6.943 6.943 0 0 1-2.99-.582 6.128 6.128 0 0 1-2.01-1.47 7.308 7.308 0 0 1-1.193-1.8h-.185v11.678Zm5.923-19.091a9.711 9.711 0 0 0 .54 3.395 4.992 4.992 0 0 0 1.563 2.251 3.9 3.9 0 0 0 2.486.8 3.88 3.88 0 0 0 2.5-.817 5.04 5.04 0 0 0 1.555-2.273 9.751 9.751 0 0 0 .533-3.359 9.641 9.641 0 0 0-.526-3.324 4.951 4.951 0 0 0-1.548-2.244 3.924 3.924 0 0 0-2.514-.81 3.967 3.967 0 0 0-2.493.781 4.876 4.876 0 0 0-1.555 2.216 9.591 9.591 0 0 0-.542 3.385Zm19.374 19.092v-30h5.966v3.665h.27a8.022 8.022 0 0 1 1.158-1.8 6.093 6.093 0 0 1 1.989-1.534 6.778 6.778 0 0 1 3.061-.618 8.236 8.236 0 0 1 4.4 1.243 8.681 8.681 0 0 1 3.224 3.736 14.287 14.287 0 0 1 1.207 6.243 14.49 14.49 0 0 1-1.172 6.158 8.751 8.751 0 0 1-3.178 3.795 8.168 8.168 0 0 1-4.5 1.286 6.943 6.943 0 0 1-2.99-.582 6.128 6.128 0 0 1-2.01-1.47 7.308 7.308 0 0 1-1.193-1.8h-.185v11.678Zm5.923-19.091a9.711 9.711 0 0 0 .54 3.395 4.992 4.992 0 0 0 1.563 2.251 3.9 3.9 0 0 0 2.486.8 3.88 3.88 0 0 0 2.5-.817 5.04 5.04 0 0 0 1.555-2.27 9.751 9.751 0 0 0 .533-3.359 9.641 9.641 0 0 0-.526-3.324 4.951 4.951 0 0 0-1.548-2.244 3.924 3.924 0 0 0-2.514-.81 3.967 3.967 0 0 0-2.493.781 4.876 4.876 0 0 0-1.555 2.216 9.591 9.591 0 0 0-.541 3.381Z" data-name="Path 3"/>
  </g>
</svg>
